<svg xmlns="http://www.w3.org/2000/svg" xmlns:xlink="http://www.w3.org/1999/xlink" viewBox="0 0 78 78">
  <defs>
    <style>
      .cls-1 {
        fill: none;
      }

      .cls-2 {
        clip-path: url(#clip-path);
      }

      .cls-3 {
        fill: url(#linear-gradient);
      }

      .cls-4 {
        fill: url(#linear-gradient-2);
      }

      .cls-5 {
        filter: url(#Circle_Icon-2);
      }

      .cls-6 {
        filter: url(#Circle_Icon);
      }
    </style>
    <filter id="Circle_Icon" x="0" y="0" width="78" height="78" filterUnits="userSpaceOnUse">
      <feOffset dy="1" input="SourceAlpha"/>
      <feGaussianBlur stdDeviation="1" result="blur"/>
      <feFlood flood-opacity="0.302"/>
      <feComposite operator="in" in2="blur"/>
      <feComposite in="SourceGraphic"/>
    </filter>
    <filter id="Circle_Icon-2" x="0" y="0" width="78" height="78" filterUnits="userSpaceOnUse">
      <feOffset dy="1" input="SourceAlpha"/>
      <feGaussianBlur stdDeviation="1" result="blur-2"/>
      <feFlood flood-opacity="0.302"/>
      <feComposite operator="in" in2="blur-2"/>
      <feComposite in="SourceGraphic"/>
    </filter>
    <clipPath id="clip-path">
      <g class="cls-6" transform="matrix(1, 0, 0, 1, 0, 0)">
        <circle id="Circle_Icon-3" data-name="Circle Icon" class="cls-1" cx="36" cy="36" r="36"/>
      </g>
    </clipPath>
    <linearGradient id="linear-gradient" x1="0.023" y1="0.977" x2="1" gradientUnits="objectBoundingBox">
      <stop offset="0" stop-color="#001657"/>
      <stop offset="1" stop-color="#078"/>
    </linearGradient>
    <linearGradient id="linear-gradient-2" x1="0.5" x2="0.5" y2="0.998" gradientUnits="objectBoundingBox">
      <stop offset="0" stop-color="#fff"/>
      <stop offset="1" stop-color="#fff" stop-opacity="0.6"/>
    </linearGradient>
  </defs>
  <g id="Icon" transform="translate(3 2)">
    <g class="cls-5" transform="matrix(1, 0, 0, 1, -3, -2)">
      <circle id="Circle_Icon-4" data-name="Circle Icon" class="cls-1" cx="36" cy="36" r="36" transform="translate(3 2)"/>
    </g>
    <g id="Icon-2" data-name="Icon" class="cls-2">
      <g id="Android_Adaptive_App_Icon_App_Icon_Back" data-name="Android/Adaptive App Icon/App Icon Back" transform="translate(-18 -18)">
        <rect id="Base" class="cls-3" width="108" height="108"/>
      </g>
      <g id="Icon-3" data-name="Icon" transform="translate(20 15)">
        <g id="Group" transform="translate(0 4)">
          <path id="Top" class="cls-4" d="M-3.659,5.509A8.4,8.4,0,0,1,0,12V36l-9.956-6A6.618,6.618,0,0,1-12.8,24V0" transform="translate(12.8)"/>
          <path id="Top-2" data-name="Top" class="cls-4" d="M-3.659,5.509A8.4,8.4,0,0,1,0,12V36l-9.956-6A6.618,6.618,0,0,1-12.8,24V0" transform="translate(22.4)"/>
          <path id="Top-3" data-name="Top" class="cls-4" d="M-3.659,5.509A8.4,8.4,0,0,1,0,12V36l-9.956-6A6.618,6.618,0,0,1-12.8,24V0" transform="translate(32)"/>
        </g>
      </g>
    </g>
  </g>
</svg>
