<svg xmlns="http://www.w3.org/2000/svg" xmlns:xlink="http://www.w3.org/1999/xlink" viewBox="0 0 32 36">
  <defs>
    <style>
      .cls-1 {
        fill: url(#linear-gradient);
      }
    </style>
    <linearGradient id="linear-gradient" x1="0.5" x2="0.5" y2="0.998" gradientUnits="objectBoundingBox">
      <stop offset="0" stop-color="#fff"/>
      <stop offset="1" stop-color="#fff" stop-opacity="0.6"/>
    </linearGradient>
  </defs>
  <g id="Icon" transform="translate(0 -4)">
    <g id="Group" transform="translate(0 4)">
      <path id="Top" class="cls-1" d="M-3.659,5.509A8.4,8.4,0,0,1,0,12V36l-9.956-6A6.618,6.618,0,0,1-12.8,24V0" transform="translate(12.8)"/>
      <path id="Top-2" data-name="Top" class="cls-1" d="M-3.659,5.509A8.4,8.4,0,0,1,0,12V36l-9.956-6A6.618,6.618,0,0,1-12.8,24V0" transform="translate(22.4)"/>
      <path id="Top-3" data-name="Top" class="cls-1" d="M-3.659,5.509A8.4,8.4,0,0,1,0,12V36l-9.956-6A6.618,6.618,0,0,1-12.8,24V0" transform="translate(32)"/>
    </g>
  </g>
</svg>
