<?xml version="1.0" standalone="no"?>
<!DOCTYPE svg PUBLIC "-//W3C//DTD SVG 20010904//EN"
 "http://www.w3.org/TR/2001/REC-SVG-20010904/DTD/svg10.dtd">
<svg version="1.0" xmlns="http://www.w3.org/2000/svg"
 width="253.000000pt" height="253.000000pt" viewBox="0 0 253.000000 253.000000"
 preserveAspectRatio="xMidYMid meet">
<metadata>
Created by potrace 1.11, written by Peter Selinger 2001-2013
</metadata>
<g transform="translate(0.000000,253.000000) scale(0.100000,-0.100000)"
fill="#000000" stroke="none">
<path d="M1085 2494 c-408 -74 -740 -317 -919 -672 -156 -310 -177 -676 -57
-994 164 -435 544 -741 1001 -805 95 -13 309 -7 405 11 247 48 457 159 636
336 115 114 162 177 233 312 103 197 146 378 141 601 -2 73 -6 146 -9 162 -5
27 -13 72 -17 100 -1 6 -17 54 -35 109 -146 432 -498 740 -954 833 -96 20
-334 24 -425 7z"/>
</g>
</svg>
